/* XPM */
static char * breakpoint_xpm[] = {
"22 22 27 1",
" 	c None",
".	c #394248",
"+	c #B1B5B8",
"@	c #B6B9BC",
"#	c #B8BBBE",
"$	c #C0C0C0",
"%	c #C6C9CB",
"&	c #CBCED0",
"*	c #D1D3D5",
"=	c #BBBEC1",
"-	c #BDC1C3",
";	c #C3C7C8",
">	c #C9CBCD",
",	c #D4D6D8",
"'	c #D6D8DA",
")	c #0C1115",
"!	c #DADCDD",
"~	c #DEE0E1",
"{	c #E2E3E5",
"]	c #E6E7E8",
"^	c #E7E8E9",
"/	c #EBECED",
"(	c #FF0000",
"_	c #000000",
":	c #F3F4F4",
"<	c #F7F8F9",
"[	c #FDFDFD",
"                      ",
"                      ",
"                      ",
"   ................   ",
"   .++++++@#$$%%&*.   ",
"   .++++@#=-;%>&,'.   ",
"   .++))))))))))'!.   ",
"   .+@#=-;>&*,'!~{.   ",
"   .#=))))&,,!~{]^.   ",
"   .-;;;,,/////^//.   ",
"   .;(((((/)))__::.   ",
"   .>(((((/////:<[.   ",
"   .*(((((/))))<[[.   ",
"   .'(((((/:<<[[[[.   ",
"   .!(((((:_____[[.   ",
"   .{]/:::<[[[[[[[.   ",
"   .//))))))[[[[[[.   ",
"   .::<<[[[[[[[[[[.   ",
"   ................   ",
"                      ",
"                      ",
"                      "};
